<?xml version="1.0" standalone="no"?>
<svg viewBox="0 0 200 200" xmlns="http://www.w3.org/2000/svg">
  <path fill="#5DB075" d="M38.4,-63.3C42.6,-57.1,33.9,-34.3,30.8,-20.2C27.7,-6.1,30.2,-0.7,29.1,3.9C28,8.5,23.3,12.3,19,15.6C14.8,18.9,11,21.6,3.6,33.3C-3.7,45.1,-14.6,65.8,-23.2,68.2C-31.8,70.6,-38.2,54.6,-44.6,41.7C-51,28.8,-57.4,19,-62.3,6.9C-67.2,-5.1,-70.6,-19.5,-64.7,-28.4C-58.8,-37.3,-43.6,-40.7,-31.3,-43.3C-18.9,-45.9,-9.5,-47.5,3.8,-53.4C17.1,-59.4,34.2,-69.6,38.4,-63.3Z" transform="translate(100 100)" />
</svg>
